<svg transform="scale(1)" id="_0053_astronaut" xmlns="http://www.w3.org/2000/svg" xmlns:xlink="http://www.w3.org/1999/xlink" viewBox="0 0 500 500" class="show_show__wrapper__graphic__5Waiy "><title>React</title><defs><style>.cls-1{opacity:.49;}.cls-1,.cls-2,.cls-3,.cls-4,.cls-5,.cls-6,.cls-7,.cls-8,.cls-9,.cls-10,.cls-11,.cls-12,.cls-13,.cls-14,.cls-15,.cls-16,.cls-17,.cls-18,.cls-19,.cls-20,.cls-21,.cls-22,.cls-23,.cls-24{stroke-width:0px;}.cls-1,.cls-19,.cls-23{fill:#518d61;}.cls-1,.cls-19,.cls-24{isolation:isolate;}.cls-2{fill:url(#linear-gradient);}.cls-3{fill:url(#linear-gradient-11);}.cls-4{fill:url(#linear-gradient-12);}.cls-5{fill:url(#linear-gradient-13);}.cls-6{fill:url(#linear-gradient-10);}.cls-7{fill:url(#linear-gradient-17);}.cls-8{fill:url(#linear-gradient-16);}.cls-9{fill:url(#linear-gradient-15);}.cls-10{fill:url(#linear-gradient-14);}.cls-11{fill:url(#linear-gradient-4);}.cls-12{fill:url(#linear-gradient-2);}.cls-13{fill:url(#linear-gradient-3);}.cls-14{fill:url(#linear-gradient-8);}.cls-15{fill:url(#linear-gradient-9);}.cls-16{fill:url(#linear-gradient-7);}.cls-17{fill:url(#linear-gradient-5);}.cls-18{fill:url(#linear-gradient-6);}.cls-19{opacity:.27;}.cls-20{fill:#e8e953;}.cls-21,.cls-24{fill:#fff;}.cls-22{fill:#ffaa71;}.cls-24{opacity:.25;}</style><linearGradient id="linear-gradient" x1="373.44" y1="3562.45" x2="269.2" y2="3405.39" gradientTransform="translate(-85.13 3652.57) scale(1 -1)" gradientUnits="userSpaceOnUse"><stop offset="0" stop-color="#231f20" stop-opacity="0"></stop><stop offset="1" stop-color="#231f20"></stop></linearGradient><linearGradient id="linear-gradient-2" x1="204.16" y1="332.26" x2="234.14" y2="470.4" gradientTransform="matrix(1,0,0,1,0,0)" xlink:href="#linear-gradient"></linearGradient><linearGradient id="linear-gradient-3" x1="349.27" y1="300.78" x2="379.24" y2="438.91" gradientTransform="matrix(1,0,0,1,0,0)" xlink:href="#linear-gradient"></linearGradient><linearGradient id="linear-gradient-4" x1="243.34" y1="211.11" x2="204.25" y2="688.07" gradientTransform="matrix(1,0,0,1,0,0)" xlink:href="#linear-gradient"></linearGradient><linearGradient id="linear-gradient-5" x1="285.82" y1="3479.27" x2="358.42" y2="3479.27" xlink:href="#linear-gradient"></linearGradient><linearGradient id="linear-gradient-6" x1="224.52" y1="3382.91" x2="131.34" y2="3300.8" xlink:href="#linear-gradient"></linearGradient><linearGradient id="linear-gradient-7" x1="257.35" y1="3327.07" x2="323.71" y2="3327.07" xlink:href="#linear-gradient"></linearGradient><linearGradient id="linear-gradient-8" x1="293.94" y1="3402.47" x2="361.71" y2="3402.47" xlink:href="#linear-gradient"></linearGradient><linearGradient id="linear-gradient-9" x1="460.19" y1="3430.7" x2="456.97" y2="3391.43" xlink:href="#linear-gradient"></linearGradient><linearGradient id="linear-gradient-10" x1="481.88" y1="3451.93" x2="475.45" y2="3396.96" xlink:href="#linear-gradient"></linearGradient><linearGradient id="linear-gradient-11" x1="199.96" y1="3355.14" x2="236.06" y2="3355.14" xlink:href="#linear-gradient"></linearGradient><linearGradient id="linear-gradient-12" x1="354.97" y1="3293.5" x2="439.07" y2="3293.5" xlink:href="#linear-gradient"></linearGradient><linearGradient id="linear-gradient-13" x1="432.25" y1="3428.23" x2="355.86" y2="3392.53" xlink:href="#linear-gradient"></linearGradient><linearGradient id="linear-gradient-14" x1="232.78" y1="175.9" x2="250.05" y2="151.3" gradientTransform="matrix(1,0,0,1,0,0)" xlink:href="#linear-gradient"></linearGradient><linearGradient id="linear-gradient-15" x1="313.43" y1="3453.16" x2="322.24" y2="3482.68" xlink:href="#linear-gradient"></linearGradient><linearGradient id="linear-gradient-16" x1="-32" y1="3592.12" x2="205.52" y2="3648.07" gradientTransform="translate(-305.22 3691.82) rotate(7.8) scale(1 -1)" gradientUnits="userSpaceOnUse"><stop offset="0" stop-color="#fff" stop-opacity="0"></stop><stop offset="1" stop-color="#fff"></stop></linearGradient><linearGradient id="linear-gradient-17" x1="316.61" y1="3598.61" x2="321.85" y2="3551.25" gradientTransform="translate(-646.29 3557.43) rotate(9.08) scale(1 -1)" xlink:href="#linear-gradient-16"></linearGradient></defs><g id="background"><path class="cls-19" d="M425.08,280.94c4.22,23.7,56.12,56.72-9.2,138.9-37.93,47.72-85.13,22.61-96.36,25.84-18.05,5.2-33.6,25.74-52.34,26.89-21.3,1.27-134.04,8.47-180.79-44.64-3.73-4.21-7.01-8.81-9.76-13.72-18.04-32.13,56.21-42.92-15.71-117.41-13.45-13.95-20.29-104.76,33.19-134.14,29.82-16.36,14.19-24.14,63.63-85.85,27.46-34.23,93.01-38.49,126.33-14.97,3.47,2.45,6.85,4.74,10.14,6.87,77.8,50.56,113.46,22.35,152.31,78.05,47.06,67.46-26.94,103.43-21.45,134.18Z"></path><path class="cls-19" d="M335.9,326.99c-5.65,23.39,28.59,74.49-64.23,123.49-53.91,28.46-87.04-13.5-98.59-15.04-18.61-2.54-41.1,10.08-58.73,3.59-4.93-1.81-15.09-5.53-27.89-11.11-3.73-4.21-7.01-8.81-9.76-13.72-18.04-32.13,56.21-42.92-15.71-117.41-13.45-13.95-20.29-104.76,33.19-134.14,29.76-16.36,14.12-24.14,63.57-85.85,27.46-34.23,93.01-38.49,126.33-14.97,3.47,2.45,6.85,4.74,10.14,6.87l.6.96c53.73,89.08,100.92,73.63,114.68,143.05,15.95,80.69-66.27,83.9-73.6,114.26Z"></path><path class="cls-19" d="M163.05,138.52c.95,37.03,0,45.77,0,45.77,0,0-68.87,31.61-68.87,78.01s20.68,70.35,20.68,70.35c0,0,22.37-1.7,27.78-12.4,5.41-10.7-3.23-55.18-3.23-55.18l23.32-10.35s-3.26,44.05,14.97,77.92c18.23,33.88,30.64,60.68,24.43,75.12-6.21,14.44-8.27,34.07-8.27,34.07l20.73,22.02s9.74,7.94,21.08-6.34c11.35-14.28,4.46-78.18,6.99-81.4s14.2-32.86,14.2-32.86c0,0,16.17-7.81,26.88.75s24.23,51.4,28.18,54.61,13.69,30.49,13.69,30.49l28.35,3.87,5.81-15.32-25.79-46.38-3.37-44.29-11.6-19.5-46.38-28.79-2.83-33.42s43.01,28.4,55.79,29.31c12.78.91,52.35-3.98,52.35-3.98l19.02-15.89-29.01-4.64-56-12.16-55.06-37.78-32.7-72.1,1.27-20.86s-63.36-5.71-62.41,31.33Z"></path></g><g id="stars"><path class="cls-21" d="M359,137.93c-.03.23-.13.44-.28.62-.18.15-.41.25-.65.28l-4.67,1.1,3.55,1.27c.29.08.56.25.77.47.17.29.25.63.22.96l.06,3.8,2.95-4.04,3.04,2.54-2.03-5.4c1.38-.32,2.7-.89,3.88-1.69l-3.2-.34c-1.97-.23-1.93-1.47-2.64-2.98-.46,1.1-.8,2.24-1.03,3.41Z"></path><path class="cls-21" d="M402.45,322.93c-.03.23-.13.44-.28.61-.18.16-.41.26-.65.29l-4.67,1.1,3.55,1.27c.3.08.57.24.77.47.17.29.25.63.22.96l.06,3.8,2.95-4.04,3.04,2.54-2.03-5.4c1.38-.33,2.7-.9,3.88-1.69l-3.2-.36c-1.97-.22-1.93-1.46-2.64-2.97-.46,1.1-.8,2.24-1.03,3.41Z"></path><path class="cls-21" d="M138.46,386.02c-.03.23-.13.44-.28.61-.18.16-.41.26-.65.29l-4.67,1.1,3.55,1.27c.29.08.56.25.77.47.17.29.25.63.22.96v3.8l2.97-4.04,3.04,2.54-2.03-5.4c1.38-.32,2.7-.89,3.88-1.69l-3.2-.36c-1.97-.22-1.93-1.46-2.64-2.97-.45,1.1-.77,2.24-.98,3.41Z"></path><path class="cls-21" d="M358.68,289.55c-.02.13-.07.25-.15.36-.11.09-.24.15-.38.18l-2.71.63,2.07.76c.17.05.32.15.44.28.1.17.14.36.13.56v2.21l1.72-2.36,1.76,1.46-1.18-3.13c.8-.19,1.57-.53,2.26-.99l-1.86-.2c-1.14-.13-1.12-.85-1.53-1.72-.25.64-.43,1.3-.56,1.98Z"></path><path class="cls-21" d="M289.21,400.09c-.04.22-.14.43-.28.61-.19.16-.42.26-.66.29l-4.65,1.1,3.55,1.27c.3.08.56.25.77.47.17.29.25.63.22.96v3.8l2.97-4.04,3.04,2.54-2.03-5.4c1.38-.33,2.7-.9,3.88-1.69l-3.21-.36c-1.95-.22-1.91-1.46-2.62-2.97-.45,1.1-.77,2.24-.98,3.41Z"></path><path class="cls-21" d="M325.18,108.02c-.01.08-.04.15-.09.22-.07.05-.15.08-.23.1l-1.57.37,1.2.44c.1.03.19.09.25.16.06.1.08.21.08.32v1.27l1-1.37,1.04.84-.7-1.83c.45-.12.88-.31,1.27-.57l-1.08-.11c-.67-.08-.66-.49-.9-1.01-.13.38-.22.78-.28,1.18Z"></path><path class="cls-21" d="M311.68,152.06c-.02.08-.05.15-.1.2-.06.05-.14.08-.22.1l-1.57.37,1.19.44c.1.03.2.08.27.16.06.1.08.21.08.32v1.27l1-1.37,1.03.84-.68-1.83c.45-.11.88-.31,1.27-.57l-1.09-.11c-.66-.08-.65-.49-.89-1.01-.14.39-.23.79-.28,1.19Z"></path><path class="cls-21" d="M156.1,109.85l.95-2.12c-.11.53-.06,1.08.16,1.57.23.49.73.8,1.27.8-.61,0-1.39.14-1.48.74,0,.39.19.94-.18,1.09l-.51-1.27c-.39.22-.82.37-1.27.44.13-.25.33-.46.58-.6-.34-.37-.62-.8-.81-1.27.33.2.63.44.89.72"></path><path class="cls-21" d="M150.71,145.62c-.02.07-.05.14-.1.2-.06.05-.14.09-.22.1l-1.58.37,1.27.44c.1.03.2.08.27.16.05.1.08.22.08.33v1.27l.99-1.36,1.03.85-.68-1.84c.45-.11.88-.31,1.27-.57l-1.09-.11c-.66-.08-.65-.49-.89-1-.15.37-.26.76-.33,1.15Z"></path><path class="cls-21" d="M111.75,172.27l3.18-7.1c-.35,1.78-.15,3.63.57,5.3.78,1.68,2.49,2.73,4.34,2.68-2.03,0-4.67.46-4.97,2.45-.19,1.27.62,3.14-.6,3.69l-1.72-4.2c-1.28.74-2.68,1.24-4.13,1.48.45-.84,1.13-1.53,1.97-1.99-1.17-1.25-2.09-2.7-2.73-4.29,1.12.65,2.13,1.47,3,2.42"></path><path class="cls-21" d="M156.1,109.85l.95-2.12c-.11.53-.06,1.08.16,1.57.23.49.73.8,1.27.8-.61,0-1.39.14-1.48.74,0,.39.19.94-.18,1.09l-.51-1.27c-.39.22-.82.37-1.27.44.13-.25.33-.46.58-.6-.34-.37-.62-.8-.81-1.27.33.2.63.44.89.72"></path></g><g id="astronaut"><path class="cls-2" d="M260.51,66.67s41.22,53.15-3.66,98.5l16.48,9.13s26.09-24.81,23.95-49.85c-2.14-25.04-5.69-38.16-36.77-57.78Z"></path><path class="cls-23" d="M214.35,419.86s-14.26,15.46-8.15,23.13c6.11,7.67,34.02,23.58,41.21,20.51,7.19-3.07,6.66-13.31,2.17-20.15-4.49-6.83-9.59-13.95-9.59-13.95l-25.64-9.55Z"></path><path class="cls-23" d="M343.77,398.89s-.28,14.05,5.39,20.95c5.67,6.9,48.99-8.88,50.2-14.76,1.2-5.88-5.67-12.45-17-12.6-6.42.05-12.77-1.25-18.66-3.8,0,0-21.08-.98-19.92,10.22Z"></path><path class="cls-12" d="M214.35,419.86s-14.26,15.46-8.15,23.13c6.11,7.67,34.02,23.58,41.21,20.51,7.19-3.07,6.66-13.31,2.17-20.15-4.49-6.83-9.59-13.95-9.59-13.95l-25.64-9.55Z"></path><path class="cls-13" d="M343.77,398.89s-.28,14.05,5.39,20.95c5.67,6.9,48.99-8.88,50.2-14.76,1.2-5.88-5.67-12.45-17-12.6-6.42.05-12.77-1.25-18.66-3.8,0,0-21.08-.98-19.92,10.22Z"></path><path class="cls-1" d="M302.08,121.82c0,34.36-27.85,62.21-62.21,62.21s-62.21-27.85-62.21-62.21,27.85-62.21,62.21-62.21c34.31-.05,62.17,27.73,62.21,62.04,0,.06,0,.12,0,.18Z"></path><path class="cls-23" d="M273.29,174.3c-22.59,14.35-51.82,12.65-72.6-4.21,0,0,15.21-8.17,39.3-7.44,19.83.65,33.29,8.23,33.29,11.65Z"></path><path class="cls-23" d="M373.71,250.08h0c-3.85,5.64-9.95,9.34-16.74,10.14-6.45.75-12.96.92-19.44.51-31.46-1.79-60.06-33.98-60.06-33.98,0,0,.86,39.79,9.74,48.99,8.88,9.2,34.16,10.73,50.32,19.37,17.33,9.28,23.94,51.86,26.63,75.84,2.13,19.3.48,26.12-10.14,30.43-7.16,2.92-14.3,1.61-16.3-13.19-8.47-62.72-53.94-56.61-63.6-61.21-1.81-.86-3.17-.82-4.2-.08-2.38,1.74-2.89,7.33-2.89,14.25,0,5.9.37,12.75.27,19.02-.29,16.72-11.59,52.38-27.25,67.03-5.07,4.79-10.07,6.15-14.4,5.81-4.03-.44-7.85-2.02-11.01-4.56-2.59-2-3.7-5.36-2.81-8.51,3.41-12.2,9.89-47.47-15.02-84.35-30.83-45.64-23.81-111.45-23.81-111.45,0,0-16.48,10.79-25.28,18.42-8.8,7.63.15,32.48-1.88,39.53-4.74,16.38-24.94,14.31-24.94,14.31-4.94-.15-9.54-2.51-12.55-6.43h0c-5.3-6.57-9.05-19.79-3.23-46.42,10.68-48.8,80.1-69.31,93.48-72.84,1.45-.38,2.23-.56,2.23-.56l72.6,4.16s50.35,39.63,67.62,46.29c7.66,2.85,15.99,3.4,23.96,1.57,5.31-1.18,10.6,2.03,12.01,7.28l.23.84c1.8,6.79.51,14.02-3.52,19.77Z"></path><path class="cls-11" d="M373.71,250.08h0c-3.85,5.64-9.95,9.34-16.74,10.14-6.45.75-12.96.92-19.44.51-31.46-1.79-60.06-33.98-60.06-33.98,0,0,.86,39.79,9.74,48.99,8.88,9.2,34.16,10.73,50.32,19.37,17.33,9.28,23.94,51.86,26.63,75.84,2.13,19.3.48,26.12-10.14,30.43-7.16,2.92-14.3,1.61-16.3-13.19-8.47-62.72-53.94-56.61-63.6-61.21-1.81-.86-3.17-.82-4.2-.08-2.38,1.74-2.89,7.33-2.89,14.25,0,5.9.37,12.75.27,19.02-.29,16.72-11.59,52.38-27.25,67.03-5.07,4.79-10.07,6.15-14.4,5.81-4.03-.44-7.85-2.02-11.01-4.56-2.59-2-3.7-5.36-2.81-8.51,3.41-12.2,9.89-47.47-15.02-84.35-30.83-45.64-23.81-111.45-23.81-111.45,0,0-16.48,10.79-25.28,18.42-8.8,7.63.15,32.48-1.88,39.53-4.74,16.38-24.94,14.31-24.94,14.31-4.94-.15-9.54-2.51-12.55-6.43h0c-5.3-6.57-9.05-19.79-3.23-46.42,10.68-48.8,80.1-69.31,93.48-72.84,1.45-.38,2.23-.56,2.23-.56l72.6,4.16s50.35,39.63,67.62,46.29c7.66,2.85,15.99,3.4,23.96,1.57,5.31-1.18,10.6,2.03,12.01,7.28l.23.84c1.8,6.79.51,14.02-3.52,19.77Z"></path><path class="cls-24" d="M202.12,181.05s-60.38,20.72-69.23,44.49c-8.85,23.77-10.55,40.51-10.55,40.51l-14.05,23.94h0c-5.3-6.57-9.05-19.79-3.23-46.42,10.68-48.8,80.1-69.31,93.48-72.84l3.58,10.32Z"></path><path class="cls-17" d="M273.29,174.3c-22.59,14.35-51.82,12.65-72.6-4.21,0,0,15.21-8.17,39.3-7.44,19.83.65,33.29,8.23,33.29,11.65Z"></path><path class="cls-18" d="M108.3,289.99s-.19-23.39,18.73-24.83c18.92-1.43,18.76,16.94,18.76,16.94,0,0-9.61,17.47-24.94,14.31-9.7-1.99-12.55-6.43-12.55-6.43Z"></path><path class="cls-16" d="M225.57,433.02c-3.94-.42-7.68-1.95-10.79-4.4-2.71-2.03-3.91-5.52-3-8.79,3.42-12.29,9.79-47.46-15.05-84.24-30.83-45.64-23.81-111.45-23.81-111.45,0,0,20.46-11.61,24.77-3s-8.41,14.23,1.01,51.01c9.42,36.78,20.77,58.91,33.18,81.58,12.41,22.67,5.98,75.63-6.31,79.29Z"></path><path class="cls-14" d="M222.41,215.55s31.52-3.71,40.09-1.19c8.57,2.52,8.57,48.95,13.43,60.86,0,0,2.79,1.89-3.2,3.51s-36.77,10.52-42.41,7.28c-5.64-3.25-11.58-19.97-14.96-30.76-3.39-10.79-8.79-32.39-5.55-36.17,3.23-3.78,12.6-3.52,12.6-3.52Z"></path><path class="cls-15" d="M373.39,224.15s-5.39-.72-7.19,6.57c-1.8,7.29-.19,17.47,1.7,19.37,1.89,1.9,1.9,2.69,5.81,0s8.49-12.12,8.49-12.12c0,0,.81-15.3-8.81-13.82Z"></path><path class="cls-23" d="M373.39,224.15c.44,5.16-2.89,16.28,0,19.87,2.89,3.59,32.31.33,39.86-19.87,7.56-20.2-3.25-18.45-5.81-18.18-2.56.27-19.02,11.07-19.02,11.07,0,0,8.51-6.75,4.73-9.45-3.78-2.7-20.21,11.39-19.77,16.56Z"></path><path class="cls-6" d="M373.39,224.15c.44,5.16-2.89,16.28,0,19.87,2.89,3.59,32.31.33,39.86-19.87,7.56-20.2-3.25-18.45-5.81-18.18-2.56.27-19.02,11.07-19.02,11.07,0,0,8.51-6.75,4.73-9.45-3.78-2.7-20.21,11.39-19.77,16.56Z"></path><path class="cls-23" d="M116.29,286.59s4.54-15.77,17.14-11.14c12.6,4.63,17.56,18.28,17.5,18.88s-1.41,7.26-7.06,3.64c-5.65-3.63-6.81-2.33-6.67-1.71s4.56,11.6,10.84,13.3c6.28,1.7.62,10.76-5.43,10.7s-19.27-4.55-20.64-6.72-10.68-16.29-5.68-26.94Z"></path><path class="cls-3" d="M116.29,286.59s4.54-15.77,17.14-11.14c12.6,4.63,17.56,18.28,17.5,18.88s-1.41,7.26-7.06,3.64c-5.65-3.63-6.81-2.33-6.67-1.71s4.56,11.6,10.84,13.3c6.28,1.7.62,10.76-5.43,10.7s-19.27-4.55-20.64-6.72-10.68-16.29-5.68-26.94Z"></path><path class="cls-4" d="M353.94,401.4c-7.16,2.92-14.3,1.61-16.3-13.19-8.47-62.72-53.94-56.61-63.6-61.21-1.81-.86-3.17-.82-4.2-.08,0,0,2.7-9.53,12.77-10.98s42.65,0,48.04,11.06c5.39,11.06,22.82,44.9,23.29,74.4Z"></path><path class="cls-5" d="M373.71,250.08h0c-3.85,5.64-9.95,9.34-16.74,10.14-6.45.75-12.96.92-19.44.51-31.46-1.79-60.06-33.98-60.06-33.98-.41-8.48,3.39-13.25,3.39-13.25,0,0,27.12,23.82,48.9,31.9,21.78,8.08,44.97-8.8,43.94,4.68Z"></path><path class="cls-22" d="M223.82,152.92s8.01,19.17-3.8,22.68c-11.82,3.51,16.38,10.14,25.36,8.42,8.98-1.72,8.88-3.02,8.88-3.02-2.69-2.11-3.53-5.81-2.02-8.88,2.32-5.69-28.41-19.21-28.41-19.21Z"></path><path class="cls-10" d="M223.82,152.92s8.01,19.17-3.8,22.68c-11.82,3.51,16.38,10.14,25.36,8.42,8.98-1.72,8.88-3.02,8.88-3.02-2.69-2.11-3.53-5.81-2.02-8.88,2.32-5.69-28.41-19.21-28.41-19.21Z"></path><path class="cls-22" d="M265.97,115.7s3.93,40.45-2.22,48.05c-6.15,7.61-15.21,13.71-30.53,1.34-15.32-12.36-20.76-45.33-9.7-51.81,11.06-6.48,30.67-16.22,42.45,2.41Z"></path><path class="cls-20" d="M246.31,98.69s-13.35,1.27-20.91,8.49c-7.56,7.23-7.71,7.96-7.71,7.96,0,0-6.87-1.08-6.73,5.26.14,6.34-2.29,5.95-.94,13.36,1.36,7.42,15.38,23.63,15.38,23.63l-5.97-16.1,2.92,1.65s-3.97-12.43,1.84-14.91,14.17-9.12,16.19-9.38c2.02-.27,19.84-1.08,22,1.62,1.79,2.62,3.3,5.41,4.51,8.34,0,0,4.93-8.34,2.64-14.82-2.29-6.48-5.77-8.88-5.77-8.88l4.55-3.08s-18.75-6.12-22-3.16Z"></path><path class="cls-22" d="M222.41,142.95s-7.68-5.4-7.78,0c-.1,5.4,4.97,9.28,9.26,9.97,4.29.68-1.47-9.97-1.47-9.97Z"></path><path class="cls-23" d="M197.69,168.49s-4.49,1.47-3.8,4.92c.68,3.45,23.46,22.18,51.4,18.03,27.94-4.15,32.17-13.95,32.17-13.95,0,0,1.05-4.21-4.18-3.26-5.24.95-46.06,17.41-75.58-5.74Z"></path><path class="cls-9" d="M197.69,168.49s-4.49,1.47-3.8,4.92c.68,3.45,23.46,22.18,51.4,18.03,27.94-4.15,32.17-13.95,32.17-13.95,0,0,1.05-4.21-4.18-3.26-5.24.95-46.06,17.41-75.58-5.74Z"></path><path class="cls-8" d="M210.78,169.49c4.12.55,6.15-2.54,7.13-6.34,1.36-5.38.34-11.08-2.8-15.66-5.9-8.74-15.91-28.59-3.03-49.26,17.26-27.68-4.4-24.61-11.41-17.17-40.53,43.27.49,87.15,10.12,88.42Z"></path><ellipse class="cls-7" cx="233.41" cy="71.37" rx="12.24" ry="7.44" transform="translate(-8.34 37.73) rotate(-9.08)"></ellipse></g></svg>