<svg transform="scale(1)" id="_0705_Coding_10" xmlns="http://www.w3.org/2000/svg" xmlns:xlink="http://www.w3.org/1999/xlink" viewBox="0 0 500 500" class="show_show__wrapper__graphic__5Waiy "><title>React</title><defs><style>.cls-1,.cls-2,.cls-3,.cls-4,.cls-5,.cls-6,.cls-7,.cls-8,.cls-9,.cls-10,.cls-11,.cls-12{stroke-width:0px;}.cls-1,.cls-4{isolation:isolate;opacity:.18;}.cls-1,.cls-4,.cls-5,.cls-12{fill:#419857;}.cls-2{fill:url(#linear-gradient);}.cls-2,.cls-4,.cls-5,.cls-6,.cls-7{fill-rule:evenodd;}.cls-3{opacity:.49;}.cls-3,.cls-7,.cls-9,.cls-11{fill:#fff;}.cls-13{opacity:.69;}.cls-6,.cls-10{fill:#594f59;}.cls-8{fill:url(#linear-gradient-2);}.cls-9{opacity:.62;}</style><linearGradient id="linear-gradient" x1="210.27" y1="171.01" x2="263.85" y2="514.82" gradientUnits="userSpaceOnUse"><stop offset="0" stop-color="#000"></stop><stop offset=".08" stop-color="#000" stop-opacity=".69"></stop><stop offset=".21" stop-color="#000" stop-opacity=".32"></stop><stop offset="1" stop-color="#000" stop-opacity="0"></stop></linearGradient><linearGradient id="linear-gradient-2" x1="241.28" y1="86.41" x2="253.56" y2="315.25" xlink:href="#linear-gradient"></linearGradient></defs><path class="cls-1" d="M474.08,356.36c-13.92,22.03-33.87,39.6-54.84,55.09-3.51,2.6-7.06,5.14-10.66,7.62-3.19,2.21-6.42,4.37-9.68,6.47-12.56,8.11-25.65,15.38-39.37,21.31-52.51,22.67-120.27,31.83-175.9,17.9-22.49-5.63-44.75-12.22-66.68-19.74-24.75-8.49-45.57-17.17-62.93-37.29-15.8-18.32-27.22-40.28-34.14-63.41-9.7-32.43-10.82-67.03-6.5-100.61,4.78-37.15,16.33-82.03,42.75-110.12,23.91-25.42,58.96-32.64,92.62-31.77,33.21.85,66.83,7.33,99.35.53,15.58-3.26,30.39-9.48,45.88-13.14,47.18-11.15,99,3.27,135.6,35.06,32.55,28.29,52.55,68.91,58.47,111.34,6.04,43.32,11.09,81.1-13.97,120.76Z"></path><path class="cls-7" d="M375.88,354.15H115.15c-5.18,0-12.53.26-16,3.2l-50.58,37.14c-.03,7.11-.82,14.83,12.11,14.87h369.66c12.91,0,12.15-7.79,12.11-14.87l-50.58-37.14c-3.49-2.96-10.91-3.2-16-3.2Z"></path><path class="cls-2" d="M375.88,354.15H115.15c-5.18,0-12.53.26-16,3.2l-50.58,37.14c-.03,7.11-.82,14.83,12.11,14.87h369.66c12.91,0,12.15-7.79,12.11-14.87l-50.58-37.14c-3.49-2.96-10.91-3.2-16-3.2Z"></path><path class="cls-7" d="M375.89,347.1H114.87c-6.59,0-13.08,1.06-14.61,2.38-16.97,14.65-33.93,29.31-50.9,43.95-2.85,2.46,2.18,4.48,11.33,4.48h369.29c9.31,0,14.6-2.1,11.69-4.62-16.88-14.58-33.75-29.15-50.64-43.73-1.57-1.35-8.44-2.46-15.14-2.46Z"></path><path class="cls-4" d="M212.82,377.94h65.4c1.14,5.73,2.29,8.78,3.43,14.51h-72.26c1.14-5.72,2.29-8.78,3.43-14.51Z"></path><path class="cls-6" d="M115.14,354.15h260.75l16.6,18.35H98.46l16.68-18.35Z"></path><rect class="cls-10" x="103.01" y="153.99" width="285.17" height="193.11" rx="12.64" ry="12.64"></rect><polygon class="cls-5" points="375.8 167.75 115.39 167.75 115.39 167.75 115.39 333.34 115.39 333.34 375.8 333.34 375.8 167.75"></polygon><rect class="cls-11" x="71.29" y="294.9" width="93.77" height="45.21" rx="12.35" ry="12.35"></rect><path class="cls-12" d="M85.64,317.1c2.03,0,2.32-1.12,2.32-2.12,0-.8-.11-1.6-.23-2.4-.11-.8-.23-1.57-.23-2.37,0-2.63,1.72-3.75,4.15-3.75h.6v1.57h-.51c-1.69,0-2.26.92-2.26,2.46,0,.66.08,1.34.2,2.03.11.72.2,1.4.2,2.17.03,1.83-.77,2.75-2.06,3.09v.06c1.29.31,2.09,1.29,2.06,3.12,0,.77-.08,1.49-.2,2.17-.12.72-.2,1.37-.2,2.06,0,1.6.66,2.49,2.26,2.49h.51v1.57h-.6c-2.37,0-4.15-1.03-4.15-3.92,0-.77.11-1.57.23-2.35.12-.77.23-1.55.23-2.32,0-.89-.29-2.12-2.32-2.12v-1.46Z"></path><path class="cls-12" d="M103.32,326.05c.06-.94.12-2.35.12-3.58v-16.74h2.49v8.7h.06c.89-1.55,2.49-2.55,4.72-2.55,3.43,0,5.87,2.86,5.84,7.07,0,4.95-3.12,7.41-6.21,7.41-2,0-3.6-.77-4.63-2.6h-.09l-.11,2.29h-2.18ZM105.92,320.5c0,.31.06.63.11.92.49,1.74,1.95,2.95,3.78,2.95,2.63,0,4.21-2.15,4.21-5.32,0-2.77-1.43-5.15-4.12-5.15-1.72,0-3.32,1.17-3.83,3.09-.06.29-.14.63-.14,1.03v2.49Z"></path><path class="cls-12" d="M123.61,316.41v-1.72h14.76v1.72h-14.76ZM123.61,322.02v-1.72h14.76v1.72h-14.76Z"></path><path class="cls-12" d="M151.29,318.56c-2.03,0-2.32,1.23-2.32,2.12,0,.77.11,1.55.23,2.32.12.77.23,1.57.23,2.35,0,2.89-1.8,3.92-4.15,3.92h-.6v-1.57h.49c1.6-.03,2.29-.89,2.29-2.49,0-.69-.11-1.34-.2-2.06-.11-.69-.23-1.4-.23-2.17,0-1.83.8-2.8,2.06-3.12v-.06c-1.26-.34-2.06-1.26-2.06-3.09,0-.77.11-1.46.23-2.17.09-.69.2-1.37.2-2.03,0-1.54-.6-2.43-2.26-2.46h-.51v-1.57h.57c2.43,0,4.18,1.12,4.18,3.75,0,.8-.11,1.57-.23,2.37-.11.8-.23,1.6-.23,2.4,0,1,.29,2.12,2.32,2.12v1.46Z"></path><rect class="cls-9" x="175.83" y="181.03" width="139.53" height="152.31"></rect><rect class="cls-12" x="213.29" y="210.61" width="2" height="85.99"></rect><rect class="cls-8" x="115.39" y="167.75" width="261.22" height="13.28"></rect><path class="cls-11" d="M418.47,191h-54.93l-11.24,16.21-1.15-16.21h-16.39c-6.59,0-11.93-5.34-11.93-11.93v-38.86c0-6.59,5.34-11.93,11.93-11.93h83.72c6.59,0,11.93,5.34,11.93,11.93v38.86c0,6.59-5.34,11.93-11.93,11.93Z"></path><path class="cls-12" d="M345.28,158.43l20.72-10.67v3.08l-17.46,8.75v.09l17.46,8.75v3.08l-20.72-10.67v-2.41Z"></path><path class="cls-12" d="M369.68,175.83l12.46-32.37h3.04l-12.5,32.37h-2.99Z"></path><path class="cls-12" d="M407.94,160.89l-20.72,10.63v-3.08l17.59-8.75v-.09l-17.59-8.75v-3.08l20.72,10.63v2.5Z"></path><rect class="cls-11" x="195.17" y="200.75" width="46.59" height="19.72"></rect><rect class="cls-11" x="195.17" y="286.74" width="46.59" height="19.72"></rect><rect class="cls-11" x="256.44" y="235.29" width="40.45" height="19.72"></rect><rect class="cls-11" x="194.06" y="235.29" width="40.45" height="19.72"></rect><polygon class="cls-12" points="277.66 235.29 275.66 235.29 275.66 227.98 214.29 227.98 214.29 225.98 277.66 225.98 277.66 235.29"></polygon><polygon class="cls-12" points="277.66 271.33 214.29 271.33 214.29 269.33 275.66 269.33 275.66 255.01 277.66 255.01 277.66 271.33"></polygon><g class="cls-13"><rect class="cls-11" x="129.58" y="201.68" width="20.65" height="2.23"></rect><rect class="cls-11" x="129.58" y="212.29" width="31.24" height="2.23"></rect><rect class="cls-11" x="129.58" y="224.38" width="20.65" height="2.23"></rect><rect class="cls-11" x="129.58" y="234.98" width="31.24" height="2.23"></rect></g><rect class="cls-3" x="329.66" y="245.4" width="20.65" height="2.23"></rect><rect class="cls-3" x="329.66" y="256.01" width="31.24" height="2.23"></rect><rect class="cls-3" x="329.66" y="268.1" width="20.65" height="2.23"></rect><rect class="cls-3" x="329.66" y="278.7" width="31.24" height="2.23"></rect></svg>