<?xml version="1.0" encoding="UTF-8"?>
<svg id="Layer_2" data-name="Layer 2" xmlns="http://www.w3.org/2000/svg" viewBox="0 0 821.97 316.52">
  <defs>
    <style>
      .cls-1 {
        fill: none;
      }

      .cls-2 {
        fill: #f7b000;
      }

      .cls-3 {
        fill: #f7b40d;
      }

      .cls-4 {
        fill: #f95d5d;
      }

      .cls-5 {
        fill: #faca3f;
      }

      .cls-6 {
        fill: #f99f00;
      }

      .cls-7 {
        fill: #f9b117;
      }

      .cls-8 {
        fill: #033156;
      }

      .cls-9 {
        fill: #f4f3f2;
      }

      .cls-10, .cls-11 {
        fill: #fff;
      }

      .cls-12 {
        fill: #ffcb6e;
      }

      .cls-13 {
        fill: #fbd766;
      }

      .cls-14 {
        fill: #062c4c;
      }

      .cls-15 {
        fill: #062538;
      }

      .cls-16 {
        fill: #141414;
      }

      .cls-17, .cls-18 {
        fill: #0e394f;
      }

      .cls-19, .cls-20 {
        fill: #0e3964;
      }

      .cls-21 {
        fill: #185472;
      }

      .cls-22 {
        fill: #19517f;
      }

      .cls-23 {
        fill: #2c6e9b;
      }

      .cls-24 {
        fill: #4d9ac4;
      }

      .cls-25 {
        fill: #4cf58c;
      }

      .cls-18 {
        opacity: .2;
      }

      .cls-18, .cls-20, .cls-11, .cls-26 {
        isolation: isolate;
      }

      .cls-20 {
        opacity: .3;
      }

      .cls-11 {
        opacity: .7;
      }

      .cls-26 {
        fill: #e59303;
        opacity: .5;
      }
    </style>
  </defs>
  <g id="Layer_1-2" data-name="Layer 1">
    <g id="Layer_2-2" data-name="Layer 2">
      <g id="Layer_1-2" data-name="Layer 1-2">
        <polygon class="cls-7" points="127.71 63.41 105.9 52.94 109.62 33.9 117.39 35.42 114.84 48.44 131.15 56.27 127.71 63.41"/>
        <path class="cls-16" d="M128.46,65.52l-24.35-11.68,4.26-21.8,10.88,2.13-2.62,13.38,16.63,7.98-4.81,9.99Zm-20.77-13.47l19.29,9.25,2.06-4.29-15.98-7.66,2.48-12.68-4.67-.91-3.18,16.29Z"/>
        <circle class="cls-17" cx="113.51" cy="28.8" r="9.86"/>
        <path class="cls-16" d="M113.51,40.24c-6.31,0-11.45-5.13-11.45-11.45s5.13-11.45,11.45-11.45,11.45,5.13,11.45,11.45-5.13,11.45-11.45,11.45Zm0-19.73c-4.57,0-8.28,3.71-8.28,8.28s3.71,8.28,8.28,8.28,8.28-3.71,8.28-8.28-3.71-8.28-8.28-8.28Z"/>
        <path class="cls-5" d="M101.61,83.27c4.22-18.77,22.85-30.56,41.62-26.34,6,1.35,11.54,4.27,16.05,8.45l18.22,16.94,62.57,57.85-81.39,25.33-81.37,25.33,18.82-83.34,5.48-24.22Z"/>
        <path class="cls-6" d="M179.99,84.37l-80.58,25.01,1.23-5.46c8.45-1.54,16.6-4.45,24.11-8.61,13.45-7.18,24.37-18.32,31.3-31.9,2.28,1.34,4.41,2.94,6.33,4.75l17.6,16.21Z"/>
        <path class="cls-16" d="M718.6,293.11c-10.54,0-20.46-4.1-27.93-11.54l-7.13-7.13c-14.2-14.2-37.3-14.2-51.49,0-7.48,7.45-17.39,11.55-27.94,11.55h-33.44v-3.17h33.43c9.71,0,18.83-3.77,25.7-10.62,15.43-15.43,40.54-15.43,55.97,0l7.12,7.12c6.87,6.85,16,10.62,25.7,10.62h51.64v3.17h-51.65Z"/>
        <path class="cls-23" d="M808.49,276.83c-7.69-14.74-21.47-25.79-39.25-25.79-20.4,.03-38.36,13.46-44.15,33.02-1.56,5.45,1.6,11.13,7.05,12.68,.93,.26,1.89,.4,2.85,.39h56.53l18.46-1.58"/>
        <path class="cls-20" d="M739.51,284.07c-1.57,5.44,1.57,11.11,7.01,12.68,.93,.27,1.9,.4,2.87,.4h-14.47c-5.67,.02-10.27-4.56-10.29-10.23,0-.96,.13-1.92,.39-2.85,5.8-19.59,23.79-33.02,44.22-33.02,2.43,0,4.85,.19,7.25,.57-17.55,2.8-31.93,15.42-36.98,32.45Z"/>
        <path class="cls-16" d="M803.6,298.73h-68.66c-1.14,0-2.27-.17-3.36-.49-6.28-1.86-9.87-8.49-8-14.76,.18-.59,.36-1.17,.56-1.75,4.12-12.06,12.69-21.78,24.13-27.39,11.44-5.61,24.38-6.43,36.44-2.31,15.79,5.63,26.45,20.36,26.97,36.99h.03v1.58c0,4.49-3.64,8.12-8.11,8.12Zm-34.37-46.12c-6.7,0-13.37,1.53-19.57,4.57-10.68,5.24-18.68,14.32-22.53,25.58-.18,.54-.36,1.08-.52,1.63-1.37,4.6,1.27,9.46,5.87,10.82,.8,.24,1.63,.36,2.46,.36h68.66c2.59,0,4.73-2.01,4.92-4.56v-.41c.13-15.93-9.86-30.22-24.87-35.57-4.71-1.61-9.58-2.41-14.42-2.41Z"/>
        <path class="cls-13" d="M110.13,226.54l26.57-8.24h0l15.64,50.44c2.28,7.35-1.83,15.15-9.18,17.43h0c-7.35,2.28-15.15-1.83-17.43-9.18h0l-15.64-50.44h.05Z"/>
        <path class="cls-13" d="M206.92,195.17l26.61-8.25h0l15.64,50.44c2.28,7.35-1.83,15.15-9.18,17.43h0c-7.35,2.28-15.15-1.83-17.43-9.18h0l-15.64-50.44h0Z"/>
        <path class="cls-16" d="M139.02,288.4c-2.48,0-4.95-.6-7.21-1.79-3.67-1.93-6.36-5.17-7.59-9.13l-16.11-51.94,1.55-.5,28.08-8.71,16.11,51.96c2.53,8.17-2.05,16.88-10.22,19.41-1.52,.47-3.07,.7-4.62,.7Zm-26.95-60.8l15.18,48.93c.98,3.15,3.12,5.73,6.04,7.27s6.26,1.84,9.41,.87c6.5-2.02,10.15-8.95,8.14-15.45l-15.18-48.93-23.59,7.32Z"/>
        <path class="cls-16" d="M235.88,257c-6.62,0-12.77-4.27-14.83-10.92l-16.11-51.96,29.64-9.19,16.11,51.96c1.23,3.96,.84,8.16-1.09,11.83-1.93,3.67-5.17,6.36-9.13,7.59-1.53,.47-3.07,.7-4.59,.7Zm-26.98-60.79l15.17,48.93c2.02,6.5,8.95,10.16,15.45,8.14,3.15-.98,5.73-3.12,7.27-6.04,1.54-2.92,1.85-6.26,.87-9.41l-15.18-48.93-23.59,7.32Z"/>
        <path class="cls-11" d="M125.32,257.98c-.95,0-1.82-.61-2.12-1.56l-5.24-16.91c-.36-1.17,.29-2.41,1.46-2.77,1.17-.36,2.41,.29,2.77,1.46l5.24,16.91c.36,1.17-.29,2.41-1.46,2.77-.22,.07-.44,.1-.66,.1Z"/>
        <path class="cls-5" d="M118.23,204.35l95.93-29.75h0l19.23,62c4.66,15.03-3.74,31-18.78,35.66l-41.58,12.9c-15.03,4.66-31-3.74-35.66-18.78l-19.23-62h0l.09-.03Z"/>
        <rect class="cls-2" x="126.22" y="216.45" width="100.44" height="12.32" transform="translate(-58.02 62.25) rotate(-17.23)"/>
        <path class="cls-16" d="M164.6,288.02c-12.83,0-24.75-8.29-28.75-21.17l-19.69-63.5,1.6-.51,97.44-30.22,19.7,63.51c4.91,15.84-3.98,32.73-19.82,37.64l-41.58,12.9c-2.96,.92-5.95,1.35-8.89,1.35Zm-44.48-82.6l18.76,60.49c4.4,14.17,19.5,22.13,33.68,17.73l41.58-12.9c14.17-4.4,22.13-19.5,17.73-33.68l-18.76-60.48-93,28.84Z"/>
        <path class="cls-16" d="M76.79,193.16l17.79-85.99,5.48-24.25c2.13-9.49,7.83-17.58,16.05-22.78,8.22-5.2,17.97-6.89,27.46-4.76,6.27,1.41,12.07,4.47,16.78,8.84l18.22,16.94,62.94,59.71-164.73,52.29ZM135.52,57.66c-6.22,0-12.33,1.76-17.72,5.17-7.5,4.75-12.71,12.14-14.66,20.8h0s-5.48,24.22-5.48,24.22l-16.69,80.66,154.47-49.03-59.04-56-18.21-16.93c-4.3-3.99-9.6-6.78-15.32-8.07-2.45-.55-4.91-.82-7.36-.82Z"/>
        <rect class="cls-7" x="71.58" y="91.11" width="170.73" height="129.04" rx="20.8" ry="20.8" transform="translate(-39.28 53.9) rotate(-17.35)"/>
        <path class="cls-26" d="M247.59,165.49l1.96,6.33c3.38,10.9-2.71,22.48-13.62,25.87l-122.63,38c-10.91,3.38-22.49-2.71-25.88-13.62l-1.96-6.33c3.39,10.9,14.97,17,25.87,13.62l122.65-38c10.87-3.32,16.99-14.83,13.67-25.7-.02-.06-.04-.11-.05-.17Z"/>
        <rect class="cls-17" x="82.98" y="102.18" width="147.93" height="106.88" rx="12.48" ry="12.48" transform="translate(-39.27 53.9) rotate(-17.35)"/>
        <path class="cls-15" d="M234.45,161.48l3.47,11.08c2.03,6.55-1.63,13.5-8.18,15.53,0,0,0,0,0,0l-116.76,36.21c-6.55,2.03-13.51-1.63-15.55-8.18l-3.45-11.08c2.03,6.54,8.99,10.2,15.53,8.17l116.77-36.22c6.53-2.03,10.19-8.96,8.17-15.5Z"/>
        <path class="cls-25" d="M133.35,144.97h0c2.56-.8,5.29,.64,6.08,3.2l5.95,19.19c.8,2.56-.64,5.29-3.2,6.08h0c-2.56,.8-5.29-.64-6.08-3.2l-5.95-19.19c-.8-2.56,.64-5.29,3.2-6.08Z"/>
        <path class="cls-25" d="M168.02,134.22h0c2.56-.8,5.29,.64,6.08,3.2l5.95,19.19c.8,2.56-.64,5.29-3.2,6.08h0c-2.56,.8-5.29-.64-6.08-3.2l-5.95-19.19c-.8-2.56,.64-5.29,3.2-6.08Z"/>
        <path class="cls-21" d="M105.72,129.43h0c.67,2.15-.54,4.44-2.69,5.11l-15.59,4.84c-2.15,.67-4.44-.54-5.11-2.69h0c-.67-2.15,.54-4.44,2.69-5.11l15.59-4.84c2.15-.67,4.44,.54,5.11,2.69Z"/>
        <circle class="cls-21" cx="112.45" cy="127.52" r="3.89"/>
        <path class="cls-12" d="M89.5,111.53l24.95-7.74c1.51-.47,3.12,.37,3.58,1.88h0c.47,1.51-.38,3.11-1.89,3.58l-24.95,7.74c-1.51,.47-3.12-.37-3.58-1.88h0c-.47-1.51,.38-3.11,1.89-3.58Z"/>
        <circle class="cls-12" cx="122.38" cy="104.17" r="2.98"/>
        <path class="cls-3" d="M123.06,76.83l13.82-4.29c.95-.3,1.96,.24,2.26,1.19h0c.3,.95-.24,1.96-1.19,2.26l-13.82,4.29c-.95,.3-1.96-.24-2.26-1.19h0c-.3-.95,.24-1.96,1.19-2.26Z"/>
        <path class="cls-3" d="M121.35,71.3l13.82-4.29c.95-.3,1.96,.24,2.26,1.19h0c.3,.95-.24,1.96-1.19,2.26l-13.82,4.29c-.95,.3-1.96-.24-2.26-1.19h0c-.3-.95,.24-1.96,1.19-2.26Z"/>
        <rect class="cls-3" x="170.73" y="247.96" width="27.66" height="5.53" rx="2.76" ry="2.76" transform="translate(-65.98 65.92) rotate(-17.23)"/>
        <path class="cls-3" d="M172.31,243.4l21.23-6.64c1.47-.46,3.03,.36,3.49,1.82h0c.46,1.46-.36,3.02-1.83,3.48l-21.23,6.64c-1.47,.46-3.03-.36-3.49-1.82h0c-.46-1.46,.36-3.02,1.83-3.48Z"/>
        <path class="cls-16" d="M108.37,239.02c-9.53,0-18.39-6.14-21.38-15.71l-26.08-83.47c-1.78-5.71-1.24-11.77,1.54-17.07,2.78-5.3,7.45-9.2,13.15-10.98l123.26-38.52c5.7-1.78,11.77-1.24,17.07,1.54,5.3,2.78,9.2,7.45,10.98,13.15l26.08,83.47c1.78,5.71,1.24,11.77-1.54,17.07-2.78,5.3-7.45,9.2-13.15,10.98l-123.26,38.52c-2.21,.69-4.46,1.02-6.66,1.02ZM205.56,75.43c-1.93,0-3.86,.29-5.75,.88l-123.26,38.52c-4.9,1.53-8.9,4.87-11.28,9.42s-2.85,9.74-1.32,14.64l26.08,83.47c3.16,10.11,13.95,15.76,24.06,12.6l123.26-38.52c4.9-1.53,8.9-4.87,11.28-9.42s2.85-9.74,1.32-14.64l-26.08-83.47c-1.53-4.9-4.87-8.9-9.42-11.28-2.79-1.46-5.83-2.2-8.89-2.2Z"/>
        <path class="cls-18" d="M647.52,299.9c0,9.18-187.95,16.62-351.46,16.62S0,309.08,0,299.9s132.54-16.62,296.05-16.62,351.46,7.44,351.46,16.62Z"/>
        <path class="cls-18" d="M821.97,299.9c0,3.72-30.08,6.74-56.25,6.74s-47.38-3.02-47.38-6.74,21.21-6.74,47.38-6.74,56.25,3.02,56.25,6.74Z"/>
        <path class="cls-19" d="M590.14,1.58H264.94c-4.74,0-8.8,3.42-9.61,8.09l-37.74,247.96c-.91,5.31,2.66,10.35,7.97,11.26,.54,.09,1.09,.14,1.64,.14h337.63c4.65-.03,8.63-3.35,9.5-7.92l39.06-231.4c2.42-12.89-6.06-25.3-18.95-27.72-1.41-.27-2.85-.4-4.29-.41Z"/>
        <path class="cls-16" d="M227.2,270.61c-.64,0-1.28-.06-1.91-.16-6.16-1.06-10.31-6.93-9.26-13.09L253.77,9.43c.95-5.47,5.65-9.43,11.17-9.43h325.21c1.53,0,3.07,.15,4.57,.44,6.65,1.25,12.41,5.01,16.23,10.6,3.82,5.59,5.23,12.32,3.98,18.97l-39.05,231.37c-1.01,5.33-5.66,9.2-11.05,9.24H227.2ZM264.94,3.17c-3.98,0-7.37,2.86-8.05,6.78l-37.74,247.92c-.77,4.47,2.23,8.7,6.67,9.46,.45,.08,.91,.12,1.38,.12h337.62c3.87-.03,7.22-2.81,7.94-6.63l39.05-231.36c1.1-5.85-.14-11.74-3.48-16.63-3.34-4.89-8.39-8.18-14.2-9.27-1.31-.25-2.66-.37-4-.38H264.94Z"/>
        <path class="cls-23" d="M590.52,1.58H251.34c-7.27,0-13.48,5.23-14.71,12.4l-38.98,255.05h358.03L598.91,11.7c.87-4.63-2.17-9.09-6.8-9.97-.52-.1-1.06-.15-1.59-.15Z"/>
        <path class="cls-16" d="M557.03,270.61H195.82l.28-1.82L235.07,13.74c1.37-7.97,8.2-13.74,16.26-13.74h339.19c.63,0,1.27,.06,1.88,.18,2.66,.5,4.96,2.01,6.48,4.24,1.52,2.23,2.09,4.92,1.58,7.58l-43.44,258.62Zm-357.53-3.17h354.85L597.35,11.44c.35-1.86-.04-3.71-1.08-5.24-1.05-1.53-2.63-2.57-4.45-2.91-.42-.08-.86-.12-1.29-.12H251.34c-6.52,0-12.04,4.66-13.14,11.08l-38.69,253.2Z"/>
        <polygon class="cls-17" points="581.24 20.58 253.7 20.58 219.14 250.03 543.33 250.03 581.24 20.58"/>
        <polygon class="cls-15" points="582.18 20.93 580.39 30.43 252.99 30.43 254.62 20.93 582.18 20.93"/>
        <polygon class="cls-15" points="263.04 20.58 228.47 250.03 218.97 250.03 253.54 20.58 263.04 20.58"/>
        <polygon class="cls-25" points="300.28 46.02 282.67 46.02 280.43 52.69 299.41 52.69 300.28 46.02"/>
        <polygon class="cls-25" points="325.61 46.02 306.42 46.02 304.17 52.69 323.16 52.69 325.61 46.02"/>
        <polygon class="cls-25" points="347.77 46.02 330.17 46.02 329.51 52.69 345.32 52.69 347.77 46.02"/>
        <polygon class="cls-25" points="362.81 46.02 356.29 46.02 354.04 52.69 361.94 52.69 362.81 46.02"/>
        <polygon class="cls-25" points="277.32 46.02 270.8 46.02 268.55 52.69 275.8 52.91 277.32 46.02"/>
        <polygon class="cls-25" points="297.11 60.27 279.51 60.27 277.26 66.94 296.24 66.94 297.11 60.27"/>
        <polygon class="cls-25" points="320.86 60.27 303.26 60.27 301.01 66.94 319.99 66.94 320.86 60.27"/>
        <polygon class="cls-25" points="344.61 60.27 327 60.27 326.34 66.94 343.74 66.94 344.61 60.27"/>
        <polygon class="cls-25" points="358.07 60.27 351.54 60.27 349.29 66.94 357.19 66.94 358.07 60.27"/>
        <polygon class="cls-25" points="274.16 60.27 267.63 60.27 265.39 66.94 273.03 66.94 274.16 60.27"/>
        <path class="cls-22" d="M43.65,267.44H405.05v33.25H55.87c-11.96,0-21.66-9.68-21.67-21.64,0,0,0-.01,0-.02v-2.14c.03-5.21,4.24-9.43,9.45-9.45Z"/>
        <path class="cls-20" d="M405.05,288.03v12.67H55.85c-11.96,0-21.65-9.7-21.66-21.66v-2.14c0-1.43,.32-2.84,.95-4.12,2.83,9.06,11.22,15.23,20.71,15.25H405.05Z"/>
        <polygon class="cls-20" points="560.22 257.95 560.22 267.44 197.94 267.44 199.26 257.95 560.22 257.95"/>
        <path class="cls-19" d="M143.83,267.44h128.24c0,9.62-7.8,17.41-17.41,17.41h-93.41c-9.62,0-17.41-7.8-17.41-17.41h0Z"/>
        <path class="cls-16" d="M254.65,286.44h-93.41c-10.48,0-19-8.52-19-19v-1.58h131.4v1.58c0,10.48-8.52,19-19,19Zm-109.16-17.41c.8,7.99,7.56,14.25,15.75,14.25h93.41c8.19,0,14.96-6.26,15.75-14.25h-124.91Z"/>
        <polygon class="cls-15" points="581.1 20.58 543.19 250.03 219.06 250.03 576.65 20.58 581.1 20.58"/>
        <line class="cls-1" x1="589.51" y1="250.03" x2="582.37" y2="254.78"/>
        <rect class="cls-14" x="580.42" y="95.14" width="24.51" height="5.57" rx="2.79" ry="2.79" transform="translate(404.73 668.48) rotate(-81.15)"/>
        <rect class="cls-14" x="585.9" y="59.92" width="24.51" height="5.57" rx="2.79" ry="2.79" transform="translate(444.17 644.1) rotate(-81.15)"/>
        <rect class="cls-16" x="189.74" y="273.37" width="24.51" height="5.57" rx="2.79" ry="2.79"/>
        <path class="cls-23" d="M60.29,267.54h38.49c2.33,0,4.21,1.89,4.21,4.21h0c0,2.33-1.89,4.21-4.21,4.21H60.29c-2.33,0-4.21-1.89-4.21-4.21h0c0-2.33,1.89-4.21,4.21-4.21Z"/>
        <circle class="cls-23" cx="110.81" cy="271.75" r="4.21"/>
        <path class="cls-24" d="M215.19,180.47l5.94-38.03c.36-2.3,2.51-3.87,4.81-3.51h0c2.3,.36,3.87,2.51,3.51,4.81l-5.94,38.03c-.36,2.3-2.51,3.87-4.81,3.51h0c-2.3-.36-3.87-2.51-3.51-4.81Z"/>
        <circle class="cls-24" cx="227.14" cy="131.2" r="4.21"/>
        <rect class="cls-24" x="257.14" y="6.32" width="46.91" height="8.42" rx="4.21" ry="4.21"/>
        <circle class="cls-24" cx="311.87" cy="10.53" r="4.21"/>
        <circle class="cls-4" cx="389.22" cy="10.97" r="4.75"/>
        <rect class="cls-8" x="113.31" y="259.53" width="36.41" height="7.92"/>
        <rect class="cls-8" x="58.34" y="259.53" width="36.41" height="7.92"/>
        <rect class="cls-8" x="168.26" y="259.53" width="36.41" height="7.92"/>
        <rect class="cls-8" x="223.23" y="259.53" width="36.41" height="7.92"/>
        <rect class="cls-8" x="278.18" y="259.53" width="36.41" height="7.92"/>
        <rect class="cls-8" x="333.15" y="259.53" width="36.41" height="7.92"/>
        <rect class="cls-8" x="388.1" y="259.53" width="36.41" height="7.92"/>
        <rect class="cls-8" x="498.46" y="259.53" width="36.41" height="7.92"/>
        <rect class="cls-8" x="443.27" y="259.77" width="36.41" height="7.92"/>
        <path class="cls-16" d="M151.3,269.03h-39.58v-11.08h39.58v11.08Zm-36.41-3.17h33.25v-4.75h-33.25v4.75Z"/>
        <path class="cls-16" d="M96.34,269.03H56.76v-11.08h39.58v11.08Zm-36.41-3.17h33.25v-4.75H59.92v4.75Z"/>
        <path class="cls-16" d="M206.25,269.03h-39.58v-11.08h39.58v11.08Zm-36.41-3.17h33.25v-4.75h-33.25v4.75Z"/>
        <path class="cls-16" d="M261.22,269.03h-39.58v-11.08h39.58v11.08Zm-36.41-3.17h33.25v-4.75h-33.25v4.75Z"/>
        <path class="cls-16" d="M316.17,269.03h-39.58v-11.08h39.58v11.08Zm-36.41-3.17h33.25v-4.75h-33.25v4.75Z"/>
        <path class="cls-16" d="M371.14,269.03h-39.58v-11.08h39.58v11.08Zm-36.41-3.17h33.25v-4.75h-33.25v4.75Z"/>
        <path class="cls-16" d="M426.09,269.03h-39.58v-11.08h39.58v11.08Zm-36.41-3.17h33.25v-4.75h-33.25v4.75Z"/>
        <path class="cls-16" d="M536.46,269.03h-39.58v-11.08h39.58v11.08Zm-36.41-3.17h33.25v-4.75h-33.25v4.75Z"/>
        <path class="cls-16" d="M481.27,269.27h-39.58v-11.08h39.58v11.08Zm-36.41-3.17h33.25v-4.75h-33.25v4.75Z"/>
        <path class="cls-16" d="M544.51,251.61H217.14L252.18,19h330.77l-38.44,232.62Zm-323.69-3.17h321l37.39-226.28H254.91l-34.08,226.28Z"/>
        <path class="cls-10" d="M536.2,46.81h-136.15c-6.69-.01-12.37,4.88-13.36,11.49l-13.22,87.71c-1.11,7.38,3.97,14.25,11.34,15.36,.67,.1,1.34,.15,2.02,.15h134.93c6.62,.01,12.27-4.77,13.35-11.3l14.5-87.71c1.22-7.36-3.76-14.31-11.12-15.52-.76-.12-1.52-.19-2.29-.18Z"/>
        <path class="cls-9" d="M549.36,62.54l-14.49,87.69c-1.08,6.52-6.72,11.3-13.33,11.3h-134.92c-6.36,0-11.86-4.43-13.22-10.64l162.21-104.08h.43c7.47,.01,13.51,6.08,13.49,13.55,0,.73-.06,1.46-.18,2.18Z"/>
        <path class="cls-16" d="M55.85,302.27c-6.2,0-12.03-2.41-16.42-6.79-4.39-4.39-6.81-10.22-6.82-16.43v-2.15c.03-6.06,4.98-11,11.03-11.03H406.64v36.41H55.85Zm-12.21-33.25c-4.32,.03-7.85,3.56-7.87,7.88v2.13c0,5.38,2.1,10.42,5.89,14.21,3.79,3.79,8.83,5.87,14.19,5.87H403.47v-30.08H43.65Z"/>
        <path class="cls-19" d="M388.43,267.44h183.65c9.18,0,16.62,7.44,16.62,16.62h0c0,9.18-7.44,16.62-16.62,16.62h-183.65c-9.18,0-16.62-7.44-16.62-16.62h0c0-9.18,7.44-16.62,16.62-16.62Z"/>
        <rect class="cls-16" x="545.2" y="281.28" width="24.51" height="5.57" rx="2.79" ry="2.79"/>
        <rect class="cls-16" x="509.54" y="281.28" width="24.51" height="5.57" rx="2.79" ry="2.79"/>
        <path class="cls-16" d="M572.08,302.27h-183.65c-10.04,0-18.21-8.17-18.21-18.21s8.17-18.21,18.21-18.21h183.65c10.04,0,18.21,8.17,18.21,18.21s-8.17,18.21-18.21,18.21Zm-183.65-33.25c-8.29,0-15.04,6.75-15.04,15.04s6.75,15.04,15.04,15.04h183.65c8.29,0,15.04-6.75,15.04-15.04s-6.75-15.04-15.04-15.04h-183.65Z"/>
        <path class="cls-10" d="M103.52,94.5c-.05,0-.1,0-.15-.01-.43-.08-.71-.5-.62-.93l1.38-7.01c.08-.43,.5-.71,.93-.62,.43,.08,.71,.5,.62,.93l-1.38,7.01c-.07,.38-.41,.64-.78,.64Z"/>
        <circle class="cls-10" cx="105.34" cy="84.03" r="1.01"/>
        <path class="cls-16" d="M220.38,117.82c-.68,0-1.3-.44-1.51-1.12l-6.65-21.47c-1.77-5.62-7.8-8.83-13.45-7.14l-27.31,8.48c-.83,.26-1.72-.21-1.98-1.04-.26-.83,.21-1.72,1.04-1.98l27.33-8.49c7.32-2.19,15.12,1.95,17.4,9.22l6.65,21.47c.26,.83-.21,1.72-1.04,1.98-.16,.05-.31,.07-.47,.07Z"/>
        <path class="cls-16" d="M141.57,105.76c-.67,0-1.3-.44-1.51-1.11-.26-.83,.21-1.72,1.04-1.98l18.1-5.62c.83-.26,1.72,.21,1.98,1.04,.26,.83-.21,1.72-1.04,1.98l-18.1,5.62c-.16,.05-.31,.07-.47,.07Z"/>
        <path class="cls-16" d="M109.29,226.44c-5.98,0-11.53-3.86-13.39-9.86l-24.11-77.77c-2.28-7.38,1.86-15.24,9.23-17.53l50.49-15.66c.83-.26,1.72,.21,1.98,1.04,.26,.84-.21,1.72-1.04,1.98l-50.49,15.66c-5.71,1.77-8.91,7.86-7.14,13.57l24.11,77.76c1.77,5.71,7.86,8.91,13.57,7.14l94.99-29.46c.83-.26,1.72,.21,1.98,1.04,.26,.84-.21,1.72-1.04,1.98l-94.99,29.46c-1.38,.43-2.77,.63-4.14,.63Z"/>
        <polygon class="cls-13" points="420.16 120.95 402.55 120.95 400.3 127.64 419.29 127.64 420.16 120.95"/>
        <polygon class="cls-13" points="445.49 120.95 426.3 120.95 424.07 127.64 443.03 127.64 445.49 120.95"/>
        <polygon class="cls-13" points="467.65 120.95 450.05 120.95 449.4 127.64 465.2 127.64 467.65 120.95"/>
        <polygon class="cls-13" points="482.69 120.95 476.17 120.95 473.94 127.64 481.82 127.64 482.69 120.95"/>
        <polygon class="cls-13" points="397.2 120.95 390.68 120.95 388.43 127.64 395.68 127.84 397.2 120.95"/>
        <polygon class="cls-13" points="416.99 135.2 399.39 135.2 397.14 141.88 416.12 141.88 416.99 135.2"/>
        <polygon class="cls-13" points="440.74 135.2 423.13 135.2 420.9 141.88 439.87 141.88 440.74 135.2"/>
        <polygon class="cls-13" points="464.49 135.2 446.88 135.2 446.23 141.88 463.62 141.88 464.49 135.2"/>
        <polygon class="cls-13" points="477.94 135.2 471.42 135.2 469.19 141.88 477.07 141.88 477.94 135.2"/>
        <polygon class="cls-13" points="394.04 135.2 387.51 135.2 385.26 141.88 392.91 141.88 394.04 135.2"/>
        <path class="cls-16" d="M521.79,162.56h-134.97c-.72,0-1.44-.05-2.16-.16-7.92-1.19-13.4-8.61-12.21-16.54l13.22-87.71c1.05-7.06,7.22-12.37,14.36-12.37h136.17c.82,0,1.65,.06,2.46,.19,7.91,1.31,13.28,8.8,11.97,16.71l-14.5,87.71c-1.16,7.05-7.19,12.16-14.34,12.16Zm-134.96-2.06h134.96c6.13,0,11.31-4.39,12.31-10.44l14.5-87.71c1.12-6.79-3.49-13.22-10.28-14.34-.7-.11-1.41-.16-2.11-.17h-136.18c-6.12,0-11.42,4.56-12.32,10.62l-13.22,87.71c-1.02,6.8,3.68,13.17,10.48,14.19,.62,.09,1.27,.11,1.86,.14Z"/>
      </g>
    </g>
  </g>
</svg>