<svg xmlns="http://www.w3.org/2000/svg" xmlns:xlink="http://www.w3.org/1999/xlink" viewBox="0,0,256,256" width="50px" height="50px"><g fill="#ffffff" fill-rule="nonzero" stroke="none" stroke-width="1" stroke-linecap="butt" stroke-linejoin="miter" stroke-miterlimit="10" stroke-dasharray="" stroke-dashoffset="0" font-family="none" font-weight="none" font-size="none" text-anchor="none" style="mix-blend-mode: normal"><g transform="scale(5.12,5.12)"><path d="M50,24.939c0,3.625 -2.427,6.061 -6.039,6.061c-1.332,0 -2.499,-0.333 -3.441,-0.934c-0.151,0.843 -0.414,1.576 -0.867,2.258c-0.806,1.221 -2.456,2.676 -5.744,2.676c-1.244,0 -2.332,-0.192 -3.423,-0.605l-1.292,-0.489v-2.906c0,0 -10.791,0 -11.29,0c-0.966,0 -1.734,-0.148 -2.36,-0.384c-0.099,0.29 -0.208,0.573 -0.352,0.846c-0.618,1.2 -1.471,1.988 -2.945,2.721l-0.867,0.431l-0.876,-0.413l-2.335,-1.101l-5.267,-2.924l0.011,-0.001c-1.866,-0.977 -2.913,-2.783 -2.913,-5.231c0,-3.413 2.25,-5.869 5.561,-6.197v-1.747v-2h10.456v2v2.397c0.857,-0.257 1.73,-0.397 2.645,-0.397c1.366,0 2.313,0.329 2.983,0.772l0.528,-0.144c1.591,-0.434 2.904,-0.628 4.258,-0.628c1.788,0 3.16,0.497 4.081,1.479c0.132,0.141 0.247,0.284 0.353,0.43c1.229,-1.139 3.127,-1.909 5.893,-1.909c1.188,0 2.322,0.119 3.677,0.387l0.877,0.173c0.804,-0.36 1.726,-0.56 2.747,-0.56c3.553,0 5.941,2.387 5.941,5.939zM7.561,17v3.839c-0.376,-0.097 -0.825,-0.13 -1.233,-0.13c-2.631,0 -4.328,1.667 -4.328,4.235c0,2.665 1.6,4.053 4.675,4.056c1.027,0 2.036,-0.097 3.325,-0.343v-11.657h-2.439zM7.561,22.865v4.044c-0.36,0.049 -0.724,0.065 -1.003,0.065c-1.289,0 -1.992,-0.739 -1.992,-2.078c0,-1.375 0.735,-2.16 2.008,-2.16c0.311,0 0.692,0.032 0.987,0.129zM11.487,21v4.916c0,2.169 -0.113,2.994 -0.473,3.706c-0.343,0.696 -0.881,1.153 -1.992,1.669l2.336,1.101c1.111,-0.552 1.649,-1.052 2.057,-1.845c0.437,-0.825 0.585,-1.782 0.585,-3.771v-5.776zM11.5,19.558h2.517v-2.558h-2.517zM15.496,23.596c0.933,-0.486 1.928,-0.739 2.812,-0.739c0.604,0 0.822,0.159 0.822,0.598v0.533c-2.935,0.25 -4.13,1.035 -4.13,2.734c0,1.571 0.899,2.278 2.904,2.278c0.992,0 2.344,-0.112 3.416,-0.268v-4.918c0,-1.007 -0.065,-1.477 -0.265,-1.839c-0.357,-0.645 -1.164,-0.975 -2.393,-0.975c-1.103,0 -2.113,0.221 -3.169,0.723zM19.237,25.572v1.621c-0.465,0.078 -0.791,0.109 -1.148,0.109c-0.653,0 -0.949,-0.221 -0.949,-0.692c0,-0.63 0.515,-0.882 2.097,-1.038zM22.7,29h2.3v-5.843c0.477,-0.146 0.843,-0.177 1.168,-0.177c0.847,0 1.243,0.352 1.243,1.295v4.725h2.29v-4.823c0,-1.229 -0.157,-1.805 -0.649,-2.331c-0.523,-0.558 -1.404,-0.846 -2.621,-0.846c-1.171,0 -2.327,0.174 -3.731,0.557zM31.195,30.268v2.256c0.882,0.334 1.732,0.476 2.714,0.476c1.931,0 3.29,-0.589 4.075,-1.778c0.538,-0.812 0.72,-1.794 0.72,-3.889v-0.667c-0.017,-0.334 -0.017,-0.667 -0.033,-1.001l-0.016,-1.334l-0.032,-1.031v-0.255c0.506,0.047 -0.11,-0.06 0.561,0.066l0.863,-1.762c-1.21,-0.239 -2.209,-0.349 -3.289,-0.349c-3.679,0 -5.758,1.57 -5.758,4.348c0,2.237 1.405,3.65 3.613,3.65c0.652,0 1.145,-0.098 1.635,-0.334v0.047c0,1.554 -0.704,2.206 -2.355,2.206c-0.934,0 -1.816,-0.205 -2.698,-0.649zM36.2,23.158l0.017,0.809l0.016,1.126c0,0.334 0.017,0.651 0.017,0.938v0.667v0.177c-0.324,0.095 -0.604,0.157 -0.947,0.157c-1.113,0 -1.735,-0.699 -1.735,-1.919c0,-0.856 0.311,-1.46 0.914,-1.793c0.393,-0.239 0.967,-0.365 1.457,-0.349h0.182h0.079zM40,25.077c0,2.42 1.511,3.923 3.961,3.923c2.482,0 4.039,-1.565 4.039,-4.061c0,-2.435 -1.495,-3.939 -3.941,-3.939c-2.498,0 -4.055,1.565 -4.059,4.077zM44.008,27.075c-0.952,0 -1.511,-0.759 -1.511,-2.078c0,-1.319 0.556,-2.078 1.527,-2.078c0.939,0 1.478,0.775 1.478,2.078c0.001,1.319 -0.554,2.078 -1.494,2.078z"></path></g></g></svg>